<svg width="32" height="32" viewBox="0 0 32 32" fill="none" xmlns="http://www.w3.org/2000/svg">
<path d="M5.7001 17.5L17.0501 28.85C17.3501 29.15 17.5001 29.5 17.5001 29.9C17.5001 30.3 17.3501 30.65 17.0501 30.95C16.7501 31.25 16.4001 31.4 16.0001 31.4C15.6001 31.4 15.2501 31.25 14.9501 30.95L1.0501 17.05C0.883431 16.8833 0.766764 16.7166 0.700098 16.55C0.633431 16.3833 0.600098 16.2 0.600098 16C0.600098 15.8 0.633431 15.6166 0.700098 15.45C0.766764 15.2833 0.883431 15.1166 1.0501 14.95L14.9501 1.04998C15.2501 0.749976 15.6001 0.599976 16.0001 0.599976C16.4001 0.599976 16.7501 0.749976 17.0501 1.04998C17.3501 1.34998 17.5001 1.69998 17.5001 2.09998C17.5001 2.49998 17.3501 2.84998 17.0501 3.14998L5.7001 14.5H30.5001C30.9334 14.5 31.2918 14.6416 31.5751 14.925C31.8584 15.2083 32.0001 15.5666 32.0001 16C32.0001 16.4333 31.8584 16.7916 31.5751 17.075C31.2918 17.3583 30.9334 17.5 30.5001 17.5H5.7001Z" fill="white"/>
</svg>
